<?xml version="1.0" standalone="no"?>
<!DOCTYPE svg PUBLIC "-//W3C//DTD SVG 20010904//EN"
 "http://www.w3.org/TR/2001/REC-SVG-20010904/DTD/svg10.dtd">
<svg version="1.0" xmlns="http://www.w3.org/2000/svg"
 width="512.000000pt" height="512.000000pt" viewBox="0 0 512.000000 512.000000"
 preserveAspectRatio="xMidYMid meet">
<metadata>
Created by potrace 1.14, written by Peter Selinger 2001-2017
</metadata>
<g transform="translate(0.000000,512.000000) scale(0.100000,-0.100000)"
fill="#000000" stroke="none">
<path d="M0 2560 l0 -2560 2560 0 2560 0 0 2560 0 2560 -2560 0 -2560 0 0
-2560z m4530 135 l0 -875 -2050 0 -2050 0 0 875 0 875 2050 0 2050 0 0 -875z"/>
<path d="M515 3478 c-3 -7 -4 -364 -3 -793 l3 -780 1965 0 1965 0 0 790 0 790
-1963 3 c-1565 2 -1964 0 -1967 -10z m1305 -218 l0 -100 -80 0 c-44 0 -80 -4
-80 -8 0 -5 87 -211 194 -458 l193 -449 92 -3 91 -3 0 -99 0 -100 -325 0 -325
0 0 100 0 100 101 0 c77 0 100 3 97 13 -3 6 -24 63 -48 125 l-43 112 -263 0
-262 0 -46 -118 c-25 -65 -46 -121 -46 -125 0 -4 50 -7 110 -7 l110 0 0 -100
0 -100 -325 0 -325 0 0 100 0 100 93 0 92 0 187 443 c103 243 190 450 194 460
6 15 -2 17 -75 17 l-81 0 0 100 0 100 385 0 385 0 0 -100z m1252 -392 l246
-493 243 493 242 492 259 0 258 0 0 -100 0 -100 -115 0 -115 0 0 -460 0 -460
115 0 115 0 0 -100 0 -100 -350 0 -350 0 0 100 0 100 109 0 109 0 5 343 c3
188 8 358 11 377 3 19 -102 -181 -233 -445 l-240 -480 -70 0 -70 0 -241 480
c-132 264 -238 467 -234 450 3 -16 8 -186 11 -377 l5 -348 109 0 109 0 0 -100
0 -100 -340 0 -340 0 0 100 0 100 115 0 115 0 0 460 0 460 -115 0 -115 0 0
100 0 100 253 0 252 0 247 -492z"/>
<path d="M1412 3140 c-25 -64 -137 -352 -158 -407 l-24 -63 190 0 c127 0 190
4 190 11 0 11 -165 443 -180 468 -7 14 -10 12 -18 -9z"/>
</g>
</svg>
